<?xml version="1.0" standalone="no"?>
<!DOCTYPE svg PUBLIC "-//W3C//DTD SVG 20010904//EN"
 "http://www.w3.org/TR/2001/REC-SVG-20010904/DTD/svg10.dtd">
<svg version="1.0" xmlns="http://www.w3.org/2000/svg"
 width="512.000000pt" height="512.000000pt" viewBox="0 0 512.000000 512.000000"
 preserveAspectRatio="xMidYMid meet">
<metadata>
Created by potrace 1.16, written by Peter Selinger 2001-2019
</metadata>
<g transform="translate(0.000000,512.000000) scale(0.100000,-0.100000)"
fill="#000000" stroke="none">
<path d="M2092 4745 c-30 -8 -77 -31 -105 -50 -29 -19 -474 -456 -989 -972
-1073 -1074 -993 -980 -993 -1163 0 -91 3 -112 24 -155 20 -39 226 -252 980
-1008 526 -527 975 -970 998 -984 52 -31 133 -53 194 -53 97 0 230 63 285 136
56 73 85 207 64 298 -26 114 -34 123 -613 708 -565 569 -615 614 -738 665 -43
17 9 18 1801 23 l1845 5 57 27 c76 35 138 95 179 170 33 60 34 68 34 168 0 95
-3 110 -28 160 -51 99 -135 168 -239 196 -45 12 -343 14 -1868 14 l-1815 0 60
29 c33 15 87 49 120 74 33 25 304 290 601 589 414 415 548 555 567 593 97 195
28 414 -160 507 -77 38 -177 47 -261 23z"/>
</g>
</svg>
