<svg id="_x33_0" enable-background="new 0 0 64 64" height="512" viewBox="0 0 64 64" width="512" xmlns="http://www.w3.org/2000/svg"><g><g><g><path d="m20.78 43.22c1.99 1.99 3.22 4.74 3.22 7.78 0 6.08-4.92 11-11 11s-11-4.92-11-11 4.92-11 11-11c3.04 0 5.79 1.23 7.78 3.22z" fill="#ffeaa7"/></g><g><path d="m51 2c6.08 0 11 4.92 11 11s-4.92 11-11 11c-3.04 0-5.79-1.23-7.78-3.22s-3.22-4.74-3.22-7.78c0-6.08 4.92-11 11-11z" fill="#ffeaa7"/></g><g><path d="m13 2c6.08 0 11 4.92 11 11 0 3.04-1.23 5.79-3.22 7.78s-4.74 3.22-7.78 3.22c-6.08 0-11-4.92-11-11s4.92-11 11-11z" fill="#e6e9ed"/></g><g><circle cx="32" cy="32" fill="#69d6f4" r="10"/></g><g><path d="m51 40c6.08 0 11 4.92 11 11s-4.92 11-11 11-11-4.92-11-11c0-3.04 1.23-5.79 3.22-7.78s4.74-3.22 7.78-3.22z" fill="#e6e9ed"/></g><g><path d="m15 13c0-1.1-.9-2-2-2s-2 .9-2 2 .9 2 2 2 2-.9 2-2zm2.94-.01v.02c0 .35.18.67.49.85l1.57.91-1.98 3.46-1.55-.9c-.31-.18-.68-.18-.99 0 0 0 0 0-.01.01-.3.17-.49.5-.49.85v1.81h-3.96v-1.81c0-.35-.19-.68-.49-.85-.01-.01-.01-.01-.01-.01-.31-.18-.68-.18-.99 0l-1.55.9-1.98-3.46 1.57-.91c.31-.18.49-.5.49-.85 0-.01 0-.01 0-.02 0-.35-.18-.67-.49-.85l-1.57-.91 1.98-3.46 1.55.9c.31.18.68.18.99 0 0 0 0 0 .01-.01.3-.17.49-.5.49-.85v-1.81h3.96v1.81c0 .35.19.68.49.85.01.01.01.01.01.01.31.18.68.18.99 0l1.55-.9 1.98 3.46-1.57.91c-.31.18-.49.5-.49.85z" fill="#fcd770"/></g><g><path d="m53 8c2.76 0 5 2.24 5 5s-2.24 5-5 5h-6c-1.66 0-3-1.34-3-3s1.34-3 3-3c.38 0 .74.07 1.07.2.38-2.38 2.44-4.2 4.93-4.2z" fill="#e6e9ed"/></g><g><path d="m51 44c3.31 0 6 2.69 6 6s-4 8-6 8-6-4.69-6-8 2.69-6 6-6z" fill="#ff826e"/></g><g><circle cx="51" cy="50" fill="#fc6e51" r="2"/></g></g><g><path d="m13 10c-1.654 0-3 1.346-3 3s1.346 3 3 3 3-1.346 3-3-1.346-3-3-3zm0 4c-.552 0-1-.449-1-1s.448-1 1-1 1 .449 1 1-.448 1-1 1z"/><path d="m21.362 11.595-2.979-5.197-2.399 1.411v-2.809h-5.967l.018 2.81-2.418-1.412-2.979 5.197 2.434 1.395-2.434 1.415 2.979 5.197 2.345-1.439.055.036v2.801h5.967l-.005-2.802 2.404 1.404 2.979-5.197-2.418-1.405zm-3.439 3.125.715.416-.987 1.723-.676-.395c-.564-.33-1.256-.355-1.883-.052l-.123.062c-.608.355-.985 1.014-.985 1.718v.808h-1.967v-.809c0-.704-.377-1.362-.985-1.718l-.086-.048c-.604-.319-1.332-.306-1.919.038l-.677.395-.987-1.723.715-.416c.607-.354.984-1.011.982-1.724.002-.705-.375-1.362-.982-1.716l-.715-.416.987-1.721.676.395c.614.359 1.381.357 2.005-.009.608-.355.986-1.014.986-1.718v-.81h1.967v.809c0 .705.378 1.363.994 1.723.619.362 1.385.363 1.996.005l.677-.395.987 1.723-.715.416c-.607.354-.984 1.011-.982 1.724-.003.703.374 1.361.982 1.715z"/><path d="m51 39c-2.949 0-5.649 1.074-7.741 2.845l-2.811-2.811c1.591-1.909 2.552-4.361 2.552-7.034s-.961-5.125-2.552-7.034l2.811-2.811c2.092 1.771 4.792 2.845 7.741 2.845 6.617 0 12-5.383 12-12s-5.383-12-12-12-12 5.383-12 12c0 2.949 1.074 5.649 2.845 7.741l-2.812 2.812c-1.908-1.592-4.36-2.553-7.033-2.553s-5.125.961-7.034 2.552l-2.812-2.812c1.772-2.091 2.846-4.791 2.846-7.74 0-6.617-5.383-12-12-12s-12 5.383-12 12 5.383 12 12 12c2.949 0 5.649-1.074 7.741-2.845l2.811 2.811c-1.591 1.909-2.552 4.361-2.552 7.034s.961 5.125 2.552 7.034l-2.811 2.811c-2.092-1.771-4.792-2.845-7.741-2.845-6.617 0-12 5.383-12 12s5.383 12 12 12 12-5.383 12-12c0-2.949-1.074-5.649-2.845-7.741l2.812-2.812c1.908 1.592 4.36 2.553 7.033 2.553s5.125-.961 7.034-2.552l2.812 2.812c-1.772 2.091-2.846 4.791-2.846 7.74 0 6.617 5.383 12 12 12s12-5.383 12-12-5.383-12-12-12zm-22-7c0-.669.087-1.339.223-2h5.555c.136.66.222 1.331.222 2s-.087 1.339-.223 2h-5.555c-.136-.66-.222-1.331-.222-2zm12 0c0 .688-.085 1.356-.232 2h-3.949c.114-.658.181-1.327.181-2s-.067-1.342-.181-2h3.949c.147.644.232 1.312.232 2zm-4.682-4c-.605-1.884-1.5-3.554-2.242-4.749 2.622.622 4.799 2.391 5.975 4.749zm-4.317-4.274c.645.974 1.551 2.509 2.201 4.274h-4.402c.651-1.763 1.556-3.299 2.201-4.274zm-4.319 4.274h-3.732c1.177-2.358 3.353-4.127 5.975-4.749-.742 1.195-1.638 2.865-2.243 4.749zm6.518 8c-.65 1.763-1.556 3.299-2.2 4.274-.646-.974-1.552-2.509-2.202-4.274zm-4.275 4.749c-2.622-.622-4.799-2.391-5.975-4.749h3.733c.604 1.884 1.5 3.554 2.242 4.749zm6.393-4.749h3.733c-1.177 2.358-3.353 4.127-5.975 4.749.742-1.195 1.637-2.865 2.242-4.749zm14.682-33c5.514 0 10 4.486 10 10s-4.486 10-10 10-10-4.486-10-10 4.486-10 10-10zm-38 20c-5.514 0-10-4.486-10-10s4.486-10 10-10 10 4.486 10 10-4.486 10-10 10zm10.232 7h3.95c-.115.658-.182 1.327-.182 2s.067 1.342.181 2h-3.95c-.146-.644-.231-1.312-.231-2s.085-1.356.232-2zm-10.232 31c-5.514 0-10-4.486-10-10s4.486-10 10-10 10 4.486 10 10-4.486 10-10 10zm38 0c-5.514 0-10-4.486-10-10s4.486-10 10-10 10 4.486 10 10-4.486 10-10 10z"/><path d="m18 55h-2v-8h-2v8h-2v-6h-2v6h-2v-4h-2v6h14v-12h-2z"/><path d="m47 19h6c3.309 0 6-2.691 6-6s-2.691-6-6-6c-2.602 0-4.839 1.636-5.66 4.014-.112-.009-.226-.014-.34-.014-2.206 0-4 1.794-4 4s1.794 4 4 4zm0-6c.248 0 .484.044.703.13l1.158.458.196-1.23c.311-1.946 1.969-3.358 3.943-3.358 2.206 0 4 1.794 4 4s-1.794 4-4 4h-6c-1.103 0-2-.897-2-2s.897-2 2-2z"/><path d="m51 47c-1.654 0-3 1.346-3 3s1.346 3 3 3 3-1.346 3-3-1.346-3-3-3zm0 4c-.552 0-1-.449-1-1s.448-1 1-1 1 .449 1 1-.448 1-1 1z"/><path d="m51 43c-3.859 0-7 3.14-7 7 0 3.617 4.187 9 7 9s7-5.383 7-9c0-3.86-3.141-7-7-7zm0 14c-1.304 0-5-4.048-5-7 0-2.757 2.243-5 5-5s5 2.243 5 5c0 2.952-3.696 7-5 7z"/></g></g></svg>