<?xml version="1.0" standalone="no"?>
<!DOCTYPE svg PUBLIC "-//W3C//DTD SVG 20010904//EN"
 "http://www.w3.org/TR/2001/REC-SVG-20010904/DTD/svg10.dtd">
<svg version="1.0" xmlns="http://www.w3.org/2000/svg"
 width="976.000000pt" height="522.000000pt" viewBox="0 0 976.000000 522.000000"
 preserveAspectRatio="xMidYMid meet">
<metadata>
Created by potrace 1.16, written by Peter Selinger 2001-2019
</metadata>
<g transform="translate(0.000000,522.000000) scale(0.100000,-0.100000)"
fill="#000000" stroke="none">
<path d="M4720 4715 l0 -55 -1490 0 -1490 0 0 -30 0 -30 1490 0 1490 0 0 -55
c0 -30 2 -55 5 -55 10 0 275 135 275 140 0 5 -265 140 -275 140 -3 0 -5 -25
-5 -55z"/>
<path d="M5976 4508 c-9 -12 -12 -25 -8 -29 4 -3 484 -284 1067 -623 583 -340
1064 -622 1069 -626 5 -5 -3 -28 -17 -54 -19 -35 -22 -46 -11 -46 9 0 14 -11
14 -35 0 -19 -4 -35 -9 -35 -6 0 -191 27 -413 60 -222 32 -560 83 -753 111
-192 28 -477 70 -632 93 l-281 42 -5 -26 c-3 -14 -2 -28 1 -31 4 -3 473 -74
1041 -158 569 -83 1036 -153 1037 -154 1 -1 -2 -24 -7 -51 -5 -27 -7 -51 -5
-54 7 -7 295 92 290 100 -2 4 -44 34 -92 68 l-87 61 98 -7 c53 -4 97 -4 97 1
0 8 -160 255 -166 255 -2 0 -15 -20 -30 -45 -14 -25 -27 -45 -29 -45 -2 0
-189 109 -417 241 -227 133 -615 360 -863 504 -247 144 -544 317 -658 384
-114 66 -210 121 -212 121 -2 0 -11 -10 -19 -22z"/>
<path d="M1770 4490 c-7 -12 -8 -26 -3 -30 4 -4 256 -110 558 -235 303 -125
647 -268 765 -317 118 -49 239 -99 268 -110 l54 -21 -214 -78 c-117 -43 -221
-78 -230 -78 -9 -1 -291 164 -625 365 -334 202 -615 369 -625 371 -22 7 -46
-36 -27 -48 8 -5 278 -167 601 -361 323 -194 587 -355 588 -358 0 -6 -310
-120 -326 -120 -5 0 -179 170 -386 377 -376 376 -377 377 -398 358 l-21 -19
368 -368 c221 -221 364 -371 358 -376 -9 -7 -539 -201 -697 -254 -40 -14 -58
-25 -58 -36 1 -49 6 -48 408 97 215 78 396 141 404 141 7 0 94 -81 193 -180
l180 -180 -598 0 -597 0 0 -30 0 -30 628 0 627 0 163 -163 163 -163 -53 -44
c-93 -79 -80 -74 -155 -56 -38 9 -178 41 -313 72 -135 30 -420 96 -633 145
-214 49 -393 87 -398 84 -10 -7 -13 -55 -3 -55 13 0 1321 -301 1337 -308 15
-6 -19 -39 -173 -170 -121 -103 -197 -161 -206 -158 -14 5 -131 74 -639 376
-345 205 -325 194 -340 173 -8 -10 -13 -22 -12 -27 2 -5 214 -134 472 -287
259 -153 471 -282 472 -286 1 -4 -147 -134 -328 -288 -182 -154 -397 -337
-478 -406 l-148 -125 19 -24 c16 -20 20 -21 36 -8 80 68 411 350 660 561 166
142 306 256 310 254 39 -22 310 -182 319 -190 9 -7 -13 -25 -80 -64 -50 -30
-353 -208 -672 -395 -319 -188 -583 -344 -587 -347 -4 -3 2 -16 12 -29 l18
-22 674 396 c370 218 682 401 694 406 17 8 61 -14 262 -133 133 -78 241 -143
239 -145 -1 -1 -353 -111 -782 -244 -429 -133 -854 -265 -945 -293 l-165 -52
3 -42 c3 -35 7 -44 25 -47 23 -5 2943 -187 2986 -186 23 0 24 -2 17 -55 -4
-37 -3 -55 5 -55 6 0 68 24 137 54 70 29 134 55 142 58 9 3 -11 19 -50 42
l-65 37 49 -6 c38 -5 47 -4 40 7 -4 7 -39 60 -76 118 -38 58 -65 106 -60 108
4 1 47 -11 95 -27 48 -16 87 -29 87 -27 0 2 -87 264 -95 285 -4 11 -16 4 -46
-25 l-39 -38 -270 269 c-149 149 -270 272 -270 275 0 5 427 140 442 140 3 0
14 -23 23 -50 l17 -51 76 70 c43 38 94 87 115 109 l39 40 -74 12 c-40 7 -102
17 -138 24 l-65 12 90 22 c50 13 107 27 127 33 l38 10 -120 99 c-66 55 -122
100 -124 100 -2 0 -7 -15 -11 -33 -11 -56 -16 -67 -28 -67 -20 -1 -731 163
-739 169 -6 5 434 271 475 287 12 4 311 -167 341 -196 4 -4 -4 -29 -19 -54
-15 -25 -23 -46 -18 -47 213 -18 299 -25 302 -23 3 3 -122 208 -152 248 -13
18 -16 17 -42 -28 -15 -26 -31 -46 -35 -44 -24 10 -300 182 -300 187 0 6 107
71 227 139 l43 24 17 -32 c39 -70 34 -73 118 56 93 143 94 144 64 145 -13 0
-80 29 -149 64 -142 71 -142 70 25 80 55 4 101 8 102 9 2 1 -43 56 -99 121
l-103 118 -23 -51 c-20 -46 -25 -50 -45 -43 -24 10 -292 121 -346 144 l-34 14
209 178 c115 98 219 187 232 199 l24 21 39 -43 c33 -35 41 -39 46 -24 4 9 30
73 60 141 29 69 51 126 48 129 -5 5 -271 -59 -287 -69 -8 -5 0 -20 21 -44 18
-20 31 -40 29 -45 -6 -16 -474 -409 -487 -410 -12 0 -300 117 -656 265 l-39
17 359 129 c198 72 459 166 579 209 120 44 222 80 226 80 4 0 11 -11 14 -25 3
-13 11 -37 17 -52 l11 -28 108 115 c60 63 107 116 105 118 -6 7 -305 38 -305
31 0 -3 7 -26 15 -50 9 -23 12 -46 8 -49 -7 -7 -263 -100 -998 -364 -115 -42
-215 -76 -221 -76 -6 0 -53 18 -105 39 -614 256 -1578 654 -1591 658 -10 3
-21 -4 -28 -17z m2086 -899 c197 -82 357 -153 355 -157 -4 -7 -299 -261 -374
-323 -16 -12 -61 12 -414 224 l-396 238 129 47 c71 26 172 63 224 83 52 19
100 35 106 36 5 1 172 -66 370 -148z m-458 -310 c298 -180 370 -227 361 -238
-9 -10 -85 -13 -393 -13 l-381 0 -195 195 c-131 131 -189 196 -179 199 7 3 88
32 179 65 l165 59 36 -22 c19 -11 203 -122 407 -245z m1103 43 c124 -52 209
-92 209 -100 0 -7 -8 -30 -17 -50 -14 -28 -15 -38 -5 -41 7 -3 12 -23 12 -54
l0 -49 -387 0 c-359 0 -390 2 -412 19 l-23 18 201 171 c111 95 204 172 207
172 3 0 100 -39 215 -86z m-903 -417 c-40 -34 -116 -99 -169 -144 l-96 -82
-144 145 -144 144 313 0 313 0 -73 -63z m527 -64 c115 -70 227 -137 248 -151
l39 -23 -263 -155 -263 -155 -145 33 -146 32 -109 107 -109 107 34 30 c19 16
106 91 194 166 l160 136 75 0 74 0 211 -127z m575 72 c0 -30 2 -55 5 -55 4 0
20 7 36 16 17 8 32 14 34 12 5 -5 -291 -178 -304 -178 -9 0 -407 234 -425 251
-6 5 138 9 322 9 l332 0 0 -55z m-1326 -500 l189 -44 64 -63 63 -64 -202 -119
c-112 -65 -239 -141 -284 -167 -44 -26 -85 -48 -91 -48 -18 0 -345 197 -342
206 3 13 392 343 404 343 6 0 95 -19 199 -44z m853 -195 c512 -117 493 -112
493 -130 0 -8 -4 -31 -10 -50 -6 -21 -6 -36 0 -40 10 -6 42 -91 37 -97 -2 -2
-112 -37 -243 -78 l-239 -75 -237 238 c-131 130 -238 239 -238 242 0 9 95 59
112 60 10 0 156 -32 325 -70z m-31 -488 c-4 -3 -201 -66 -404 -128 l-113 -35
-249 147 c-138 81 -250 149 -250 153 0 4 55 39 123 78 67 39 192 112 277 162
l155 91 232 -232 c128 -128 231 -234 229 -236z m336 -329 c153 -153 278 -282
278 -288 0 -5 -16 -26 -36 -46 l-36 -37 36 -12 c20 -6 36 -15 36 -18 0 -11
-39 -72 -45 -72 -6 0 -237 136 -793 465 l-223 133 88 27 c48 15 156 48 238 75
83 26 157 48 165 49 8 1 140 -124 292 -276z m-681 -6 c650 -383 879 -521 879
-531 0 -6 -11 -28 -25 -48 -14 -20 -25 -39 -25 -42 0 -4 14 -6 30 -6 20 0 30
-5 30 -15 0 -10 -10 -15 -33 -15 -51 0 -2890 179 -2893 183 -2 1 126 43 284
92 158 48 312 96 342 106 30 9 246 77 480 149 234 72 493 153 575 180 83 26
157 49 166 49 8 1 94 -45 190 -102z"/>
<path d="M8063 2828 c3 -13 8 -36 12 -53 l6 -30 -353 -94 c-435 -116 -956
-254 -1396 -371 -184 -49 -336 -91 -338 -93 -3 -3 -2 -17 2 -31 4 -19 11 -25
23 -22 9 3 315 85 681 182 366 97 829 220 1030 274 l365 97 12 -41 c7 -23 15
-47 18 -54 3 -9 46 23 120 89 64 56 112 105 108 109 -8 7 -258 60 -282 60 -9
0 -12 -8 -8 -22z"/>
<path d="M8223 2551 c-78 -15 -145 -29 -148 -32 -2 -3 9 -24 26 -48 17 -23 30
-43 28 -45 -2 -2 -134 -101 -294 -222 -159 -120 -385 -291 -502 -379 -116 -88
-468 -353 -782 -590 -313 -236 -570 -432 -570 -435 0 -3 7 -15 17 -27 17 -21
19 -20 572 399 305 232 710 538 900 682 190 143 424 320 520 393 l175 133 36
-42 37 -42 71 142 c39 78 68 142 64 141 -5 0 -72 -13 -150 -28z"/>
</g>
</svg>
