<svg id="Capa_1" enable-background="new 0 0 512 512" height="512" viewBox="0 0 512 512" width="512" xmlns="http://www.w3.org/2000/svg"><g><path d="m57.838 187.401-34.969-9.375-7.764 28.975 26.484 7.104-7.09 26.499 28.975 7.764 9.366-34.982 18.06-10.422 59.996 34.638 59.996-34.638 18.06 10.422 9.366 34.982 28.975-7.764-7.09-26.499 26.484-7.104-7.764-28.975-34.969 9.375-18.058-10.422v-51.958l18.058-10.422 34.969 9.375 7.764-28.975-26.484-7.104 7.09-26.499-28.975-7.764-9.366 34.982-18.06 10.422-44.996-25.977v-26.243l25.605-25.605-21.211-21.211-19.395 19.395-19.394-19.395-21.211 21.211 25.605 25.605v26.243l-44.996 25.977-18.06-10.422-9.366-35.982-28.975 8.764 7.09 26.499-26.484 7.104 7.764 28.975 34.969-9.375 18.058 10.422v51.958zm78.058-51.401h30v30h-30z"/><path d="m315.896 298.237v77.763c0 41.353-33.647 76-75 76-37.289 0-68.064-28.438-73.801-64.137 16.807-6.528 28.801-22.775 28.801-41.863v-99.739l-45 25.984-45-25.984v99.739c0 19.999 13.2 36.791 31.278 42.634 6.328 51.885 50.158 93.366 103.722 93.366h168.763c6.213 17.422 22.707 30 42.237 30 24.814 0 45-20.186 45-45s-20.186-45-45-45c-19.53 0-36.024 12.578-42.237 30h-95.512c16.432-16.051 27.23-38.495 30.372-62.377 67.974-6.942 122.377-63.845 122.377-133.623v-77.763c17.422-6.213 30-22.707 30-42.237 0-24.814-20.186-45-45-45s-45 20.186-45 45c0 19.53 12.578 36.024 30 42.237v77.763c0 52.755-40.25 96.127-91 103.484v-61.247c17.422-6.213 30-22.707 30-42.237 0-24.814-20.186-45-45-45s-45 20.186-45 45c0 19.53 12.577 36.024 30 42.237z"/></g></svg>