<svg id="line" height="512" viewBox="0 0 64 64" width="512" xmlns="http://www.w3.org/2000/svg"><path d="m60 16.5h-32a3 3 0 0 0 -3 3v40a3 3 0 0 0 3 3h25v-9a1 1 0 0 1 1-1h9v-33a3 3 0 0 0 -3-3zm-11 38h-18a1 1 0 0 1 0-2h18a1 1 0 0 1 0 2zm8-7h-26a1 1 0 0 1 0-2h26a1 1 0 0 1 0 2zm0-7h-26a1 1 0 0 1 0-2h26a1 1 0 0 1 0 2zm0-7h-26a1 1 0 0 1 0-2h26a1 1 0 0 1 0 2zm0-7h-26a1 1 0 0 1 0-2h26a1 1 0 0 1 0 2z" fill="#c4a2fc"/><path d="m55 54.5v7.362c.348-.27 7.117-7.046 7.362-7.362z" fill="#c4a2fc"/><g fill="#151a6a"><path d="m47.046 6.5h-6.046v-2a3 3 0 0 0 -3-3h-34a3 3 0 0 0 -3 3v26.338a2.665 2.665 0 0 0 2.662 2.662h34.984a2.988 2.988 0 0 0 2.786-1.886l8.4-21a3 3 0 0 0 -2.786-4.114zm-43.046-3h34a1 1 0 0 1 1 1v2h-6.3a3 3 0 0 0 -1.874.657l-3.906 3.124a1 1 0 0 1 -.624.219h-14.918a3 3 0 0 0 -2.79 1.9l-5.588 13.179v-21.079a1 1 0 0 1 1-1zm43.974 6.372-8.4 21a1 1 0 0 1 -.929.629h-34.983a.663.663 0 0 1 -.662-.663c0-.253-.41.88 7.444-17.693a1 1 0 0 1 .934-.645h14.922a3 3 0 0 0 1.874-.657l3.906-3.124a1 1 0 0 1 .62-.219h14.346a1 1 0 0 1 .928 1.372z"/><path d="m14 26.5h-5a1 1 0 0 0 0 2h5a1 1 0 0 0 0-2z"/></g></svg>