<?xml version="1.0"?>
<svg xmlns="http://www.w3.org/2000/svg" id="Layer_1" data-name="Layer 1" viewBox="0 0 512 512" width="512" height="512"><path d="M303.114,97.579a6,6,0,0,0-7.765-3.423l-62.02,24.07a6,6,0,1,0,4.342,11.188l62.02-24.07A6,6,0,0,0,303.114,97.579Z"/><path d="M303.675,115.472,241.724,139.7a6,6,0,1,0,4.371,11.176l61.951-24.23a6,6,0,0,0-4.371-11.176Z"/><path d="M389.09,156H352.328L311.022,49.546a18.921,18.921,0,0,0-24.453-10.769l-5.454,2.116-3.8-9.817a18.917,18.917,0,0,0-24.453-10.77L152.876,59.1a18.916,18.916,0,0,0-10.79,24.446L170.2,156H122.91a23.5,23.5,0,0,0,0,47H126l18.543,262.987A36.078,36.078,0,0,0,179.58,493H335.42a35.539,35.539,0,0,0,34.527-27.024L388,203h1.09a23.5,23.5,0,0,0,0-47ZM153.272,79.206a6.916,6.916,0,0,1,3.939-8.912l99.993-38.8a6.9,6.9,0,0,1,8.921,3.925l3.8,9.817L214.28,66.826a5.994,5.994,0,0,0-3.192,2.9l-19.35,38.55a6,6,0,0,0-.257,4.794l.055.147,16.6,42.78H183.068Zm65.914,16.851-9.794,3.8L215.747,87.2ZM138.527,203h43.91L158.7,214.407l-20.051-9.671Zm83.331,137.749L257.5,323.466l35.642,17.283L257.5,358.033Zm71.3,47.91L257.5,405.949l-35.655-17.29,35.655-17.29Zm-71.307-95.818L257.5,275.552l35.652,17.289L257.5,310.129Zm0-47.915,35.651-17.29,35.653,17.29L257.5,262.215Zm21.9,23.957L208.1,286.172l-35.652-17.288,35.651-17.29Zm0,47.914-35.642,17.284-35.652-17.288L208.1,299.509Zm0,47.9-35.655,17.29-35.641-17.284,35.654-17.289Zm0,47.916L208.105,429.9,172.45,412.612l35.644-17.285Zm13.751,6.668,35.644,17.285L257.5,453.854,221.856,436.57Zm13.751-6.668,35.655-17.29,35.644,17.285L306.9,429.9Zm35.655-30.626L271.251,364.7l35.642-17.283,35.654,17.289ZM271.251,316.8,306.9,299.509l35.642,17.284-35.652,17.288Zm0-47.914L306.9,251.6l35.652,17.289L306.9,286.172Zm0-47.916L306.9,203.68l35.656,17.29L306.9,238.257ZM257.5,214.51,233.769,203h47.468Zm-13.753,6.459L208.1,238.258l-35.651-17.289L208.1,203.68Zm-104.175-2.6,5.371,2.6-5.032,2.441Zm1.207,17.961,17.915-8.688,35.65,17.289L158.7,262.216l-16.716-8.107Zm2.124,31.57,2.038.988-1.91.926Zm1,14.83,14.792-7.174,35.651,17.289L158.7,310.125l-13.4-6.5Zm3.12,46.4,11.681-5.665,35.652,17.289L158.7,358.039,148.64,353.16Zm3.121,46.4,8.557-4.15,35.642,17.283L158.7,405.943l-6.729-3.263Zm3.12,46.389,5.435-2.635,35.655,17.29L158.7,453.859l-3.4-1.649ZM179.58,481a23.848,23.848,0,0,1-21.489-13.494l.61-.289L187.113,481Zm-7.127-20.474,35.652-17.288,35.644,17.284L208.1,477.81ZM229.084,481,257.5,467.22,285.916,481Zm42.167-20.478L306.9,443.238l35.652,17.288L306.9,477.81ZM335.42,481h-7.533L356.3,467.21l.615.306A23.847,23.847,0,0,1,335.42,481ZM359.7,452.21l-3.4,1.649L320.646,436.57,356.3,419.28l5.435,2.635Zm3.331-49.53-6.729,3.263-35.644-17.284L356.3,371.376l8.557,4.15Zm3.33-49.52L356.3,358.039,320.644,340.75,356.3,323.461l11.681,5.665Zm3.331-49.531-13.395,6.5-35.642-17.284,35.651-17.289,14.792,7.174Zm2.275-33.819-1.91-.926,2.038-.988Zm1.055-15.7-16.716,8.107-35.651-17.29L356.3,227.639l17.916,8.687Zm2.065-30.7-5.032-2.44,5.371-2.6Zm1.267-18.726L356.3,214.459,332.568,203h43.905Zm20.775-17.134A11.412,11.412,0,0,1,389.09,191H122.91a11.5,11.5,0,0,1,0-23H301.76a6,6,0,0,0,0-12h-5.555l20.23-7.912a6,6,0,1,0-4.37-11.176L263.258,156h-42.25L204.9,114.473l24.225-9.4a6,6,0,0,0,3.424-7.764l-8.33-21.467,66.7-25.88a6.905,6.905,0,0,1,8.924,3.928L339.456,156h-3.671a6,6,0,0,0,0,12h53.3a11.4,11.4,0,0,1,11.37,11.4A11.537,11.537,0,0,1,397.128,187.55Z"/></svg>
