<?xml version="1.0" encoding="iso-8859-1"?>
<!-- Generator: Adobe Illustrator 19.0.0, SVG Export Plug-In . SVG Version: 6.00 Build 0)  -->
<svg version="1.1" id="Capa_1" xmlns="http://www.w3.org/2000/svg" xmlns:xlink="http://www.w3.org/1999/xlink" x="0px" y="0px"
	 viewBox="0 0 512 512" style="enable-background:new 0 0 512 512;" xml:space="preserve">
<g>
	<g>
		<g>
			<path d="M512,256C512,114.842,397.158,0,256,0S0,114.842,0,256c0,95.997,53.122,179.806,131.505,223.618
				c0.562,0.411,1.172,0.757,1.827,1.023C169.779,500.622,211.584,512,256,512s86.221-11.378,122.668-31.36
				c0.655-0.265,1.265-0.612,1.827-1.023C458.878,435.806,512,351.997,512,256z M17.067,256
				C17.067,124.254,124.254,17.067,256,17.067S494.933,124.254,494.933,256c0,84.69-44.297,159.224-110.933,201.669v-48.065
				c0-45.235-24.354-87.578-63.573-110.49c-2.782-1.621-6.238-1.536-8.943,0.196c-33.22,21.487-77.747,21.487-110.967,0
				c-2.697-1.732-6.161-1.818-8.943-0.196C152.354,322.026,128,364.368,128,409.603v48.065C61.364,415.224,17.067,340.69,17.067,256
				z M145.067,467.565v-57.961c0-37.513,19.354-72.738,50.816-93.107c36.548,21.367,83.686,21.367,120.235,0
				c31.462,20.369,50.816,55.595,50.816,93.107v57.961c-33.171,17.464-70.915,27.369-110.933,27.369
				S178.238,485.029,145.067,467.565z"/>
			<path d="M256,281.6c47.053,0,85.333-38.281,85.333-85.333S303.053,110.933,256,110.933s-85.333,38.281-85.333,85.333
				S208.947,281.6,256,281.6z M256,128c37.641,0,68.267,30.626,68.267,68.267c0,37.641-30.626,68.267-68.267,68.267
				c-37.641,0-68.267-30.626-68.267-68.267C187.733,158.626,218.359,128,256,128z"/>
		</g>
	</g>
</g>
<g>
</g>
<g>
</g>
<g>
</g>
<g>
</g>
<g>
</g>
<g>
</g>
<g>
</g>
<g>
</g>
<g>
</g>
<g>
</g>
<g>
</g>
<g>
</g>
<g>
</g>
<g>
</g>
<g>
</g>
</svg>
